<svg width="561" height="561" viewBox="0 0 561 561" fill="none" xmlns="http://www.w3.org/2000/svg">
<path fill-rule="evenodd" clip-rule="evenodd" d="M314.529 417.319L348.456 552.194C349.414 551.953 350.371 551.707 351.326 551.456C321.299 559.348 290.023 562.23 258.771 559.838C206.136 555.81 155.711 536.986 113.311 505.538C70.9116 474.09 38.2642 431.299 19.1338 382.098L148.757 331.697C158.387 356.464 174.82 378.004 196.163 393.834C217.506 409.664 242.888 419.139 269.384 421.167C284.615 422.333 299.857 421.01 314.529 417.319Z" fill="#FE9900"/>
<path d="M19.3748 178.508C35.6255 137.005 61.5478 99.9807 94.9869 70.5121C128.426 41.0435 168.416 19.9821 211.633 9.07862L245.655 143.93C223.901 149.418 203.771 160.02 186.939 174.854C170.107 189.687 157.058 208.324 148.878 229.216L19.3748 178.508Z" fill="#763FC1"/>
<path d="M211.307 9.16093C270.424 -5.82949 332.818 -1.11145 389.009 22.5981C445.199 46.3076 492.114 87.7124 522.623 140.521L402.199 210.094C386.842 183.512 363.226 162.67 334.942 150.735C306.657 138.8 275.249 136.425 245.492 143.971L211.307 9.16093Z" fill="#4931A1"/>
<path d="M19.117 382.055C-6.3266 316.586 -6.23894 243.947 19.3626 178.539L148.872 229.232C135.985 262.156 135.941 298.721 148.748 331.676L19.117 382.055Z" fill="#D0401F"/>
<path d="M523.177 419.741C504.456 452.444 479.327 481.033 449.295 503.794C419.263 526.556 384.947 543.023 348.401 552.208L314.501 417.326C332.897 412.702 350.171 404.413 365.288 392.956C380.405 381.498 393.054 367.108 402.478 350.646L523.177 419.741Z" fill="#63B700"/>
</svg>
