<svg width="252" height="138" viewBox="0 0 252 138" fill="none" xmlns="http://www.w3.org/2000/svg">
<g clip-path="url(#clip0_3701_17348)">
<path d="M14.098 129.587C11.5183 129.587 9.19358 129.063 7.12384 128.015C5.08409 126.938 3.47928 125.456 2.30943 123.571C1.16957 121.685 0.59964 119.545 0.59964 117.151C0.59964 114.756 1.16957 112.616 2.30943 110.731C3.47928 108.845 5.08409 107.379 7.12384 106.331C9.19358 105.254 11.5183 104.715 14.098 104.715C16.6476 104.715 18.8674 105.254 20.7572 106.331C22.6769 107.379 24.0717 108.89 24.9417 110.866L19.4974 113.784C18.2375 111.569 16.4226 110.461 14.053 110.461C12.2232 110.461 10.7084 111.06 9.50854 112.257C8.3087 113.454 7.70877 115.086 7.70877 117.151C7.70877 119.216 8.3087 120.847 9.50854 122.044C10.7084 123.241 12.2232 123.84 14.053 123.84C16.4527 123.84 18.2674 122.733 19.4974 120.518L24.9417 123.481C24.0717 125.396 22.6769 126.893 20.7572 127.97C18.8674 129.048 16.6476 129.587 14.098 129.587Z" fill="#763FC1"/>
<path d="M38.2969 104.715C42.0465 104.715 44.9262 105.613 46.9358 107.409C48.9456 109.174 49.9505 111.853 49.9505 115.445V129.228H43.3813V126.22C42.0615 128.464 39.6017 129.587 36.0022 129.587C34.1425 129.587 32.5226 129.272 31.1428 128.644C29.7929 128.015 28.7581 127.147 28.0382 126.04C27.3182 124.933 26.9583 123.675 26.9583 122.269C26.9583 120.024 27.7982 118.258 29.478 116.971C31.1878 115.684 33.8125 115.041 37.352 115.041H42.9313C42.9313 113.514 42.4664 112.347 41.5365 111.539C40.6067 110.701 39.2119 110.282 37.352 110.282C36.0623 110.282 34.7873 110.491 33.5275 110.91C32.2977 111.299 31.2479 111.838 30.3779 112.527L27.8582 107.633C29.1781 106.705 30.7529 105.987 32.5826 105.478C34.4425 104.969 36.3472 104.715 38.2969 104.715ZM37.757 124.873C38.9569 124.873 40.0218 124.603 40.9516 124.065C41.8815 123.496 42.5415 122.673 42.9313 121.595V119.126H38.1169C35.2373 119.126 33.7974 120.069 33.7974 121.955C33.7974 122.852 34.1424 123.571 34.8323 124.11C35.5522 124.618 36.5272 124.873 37.757 124.873Z" fill="#763FC1"/>
<path d="M67.6417 104.715C70.6414 104.715 73.0562 105.613 74.8859 107.409C76.7457 109.204 77.6755 111.868 77.6755 115.4V129.228H70.6564V116.477C70.6564 114.562 70.2365 113.14 69.3965 112.212C68.5567 111.255 67.3419 110.776 65.752 110.776C63.9822 110.776 62.5725 111.329 61.5225 112.437C60.4727 113.514 59.9477 115.131 59.9477 117.285V129.228H52.9285V105.074H59.6327V107.902C60.5627 106.885 61.7176 106.107 63.0973 105.568C64.4772 104.999 65.992 104.715 67.6417 104.715Z" fill="#763FC1"/>
<path d="M106.709 95.9155V129.228H100.005V126.444C98.265 128.539 95.7453 129.587 92.4457 129.587C90.166 129.587 88.0962 129.078 86.2365 128.06C84.4067 127.043 82.9669 125.591 81.917 123.705C80.8671 121.82 80.3422 119.635 80.3422 117.151C80.3422 114.667 80.8671 112.482 81.917 110.596C82.9669 108.711 84.4067 107.259 86.2365 106.241C88.0962 105.224 90.166 104.715 92.4457 104.715C95.5353 104.715 97.95 105.688 99.6899 107.633V95.9155H106.709ZM93.6606 123.84C95.4303 123.84 96.9002 123.241 98.0701 122.044C99.2399 120.817 99.8249 119.186 99.8249 117.151C99.8249 115.115 99.2399 113.499 98.0701 112.302C96.9002 111.075 95.4303 110.461 93.6606 110.461C91.8608 110.461 90.376 111.075 89.2061 112.302C88.0363 113.499 87.4514 115.115 87.4514 117.151C87.4514 119.186 88.0363 120.817 89.2061 122.044C90.376 123.241 91.8608 123.84 93.6606 123.84Z" fill="#763FC1"/>
<path d="M122.474 129.587C119.925 129.587 117.63 129.063 115.59 128.015C113.58 126.938 112.005 125.456 110.866 123.571C109.726 121.685 109.156 119.545 109.156 117.151C109.156 114.756 109.726 112.616 110.866 110.731C112.005 108.845 113.58 107.379 115.59 106.331C117.63 105.254 119.925 104.715 122.474 104.715C125.024 104.715 127.304 105.254 129.313 106.331C131.323 107.379 132.898 108.845 134.038 110.731C135.178 112.616 135.748 114.756 135.748 117.151C135.748 119.545 135.178 121.685 134.038 123.571C132.898 125.456 131.323 126.938 129.313 128.015C127.304 129.063 125.024 129.587 122.474 129.587ZM122.474 123.84C124.274 123.84 125.744 123.241 126.884 122.044C128.054 120.817 128.638 119.186 128.638 117.151C128.638 115.115 128.054 113.499 126.884 112.302C125.744 111.075 124.274 110.461 122.474 110.461C120.674 110.461 119.19 111.075 118.02 112.302C116.85 113.499 116.265 115.115 116.265 117.151C116.265 119.186 116.85 120.817 118.02 122.044C119.19 123.241 120.674 123.84 122.474 123.84Z" fill="#763FC1"/>
<path d="M144.894 108.262C145.734 107.094 146.858 106.211 148.269 105.613C149.709 105.014 151.358 104.715 153.218 104.715V111.18C152.437 111.12 151.913 111.09 151.643 111.09C149.634 111.09 148.058 111.659 146.919 112.796C145.778 113.903 145.209 115.579 145.209 117.824V129.228H138.19V105.074H144.894V108.262Z" fill="#763FC1"/>
<path d="M186.797 104.715C189.827 104.715 192.226 105.613 193.996 107.409C195.795 109.174 196.695 111.838 196.695 115.4V129.228H189.676V116.477C189.676 114.562 189.272 113.14 188.462 112.212C187.683 111.255 186.557 110.776 185.087 110.776C183.438 110.776 182.132 111.314 181.173 112.392C180.214 113.439 179.733 115.011 179.733 117.106V129.228H172.714V116.477C172.714 112.676 171.184 110.776 168.125 110.776C166.505 110.776 165.214 111.314 164.255 112.392C163.296 113.439 162.815 115.011 162.815 117.106V129.228H155.796V105.074H162.5V107.858C163.399 106.84 164.495 106.062 165.785 105.523C167.104 104.984 168.544 104.715 170.104 104.715C171.814 104.715 173.359 105.059 174.738 105.748C176.118 106.406 177.229 107.379 178.068 108.666C179.057 107.409 180.303 106.436 181.803 105.748C183.333 105.059 184.997 104.715 186.797 104.715Z" fill="white"/>
<path d="M210.501 104.715C214.251 104.715 217.131 105.613 219.14 107.409C221.15 109.174 222.155 111.853 222.155 115.445V129.228H215.586V126.22C214.267 128.464 211.807 129.587 208.207 129.587C206.348 129.587 204.728 129.272 203.348 128.644C201.998 128.015 200.962 127.147 200.242 126.04C199.522 124.933 199.162 123.675 199.162 122.269C199.162 120.024 200.003 118.258 201.682 116.971C203.392 115.684 206.017 115.041 209.557 115.041H215.136C215.136 113.514 214.671 112.347 213.741 111.539C212.812 110.701 211.416 110.282 209.557 110.282C208.267 110.282 206.991 110.491 205.732 110.91C204.502 111.299 203.453 111.838 202.582 112.527L200.062 107.633C201.383 106.705 202.957 105.987 204.787 105.478C206.647 104.969 208.552 104.715 210.501 104.715ZM209.961 124.873C211.161 124.873 212.226 124.603 213.156 124.065C214.087 123.496 214.746 122.673 215.136 121.595V119.126H210.321C207.441 119.126 206.002 120.069 206.002 121.955C206.002 122.852 206.348 123.571 207.037 124.11C207.757 124.618 208.732 124.873 209.961 124.873Z" fill="white"/>
<path d="M239.441 104.715C241.691 104.715 243.73 105.239 245.561 106.286C247.42 107.304 248.875 108.755 249.924 110.641C250.975 112.497 251.5 114.667 251.5 117.151C251.5 119.635 250.975 121.82 249.924 123.705C248.875 125.561 247.42 127.013 245.561 128.06C243.73 129.078 241.691 129.587 239.441 129.587C236.351 129.587 233.922 128.614 232.152 126.669V137.937H225.133V105.074H231.837V107.858C233.577 105.762 236.112 104.715 239.441 104.715ZM238.226 123.84C240.026 123.84 241.496 123.241 242.635 122.044C243.805 120.817 244.391 119.186 244.391 117.151C244.391 115.115 243.805 113.499 242.635 112.302C241.496 111.075 240.026 110.461 238.226 110.461C236.426 110.461 234.942 111.075 233.772 112.302C232.633 113.499 232.062 115.115 232.062 117.151C232.062 119.186 232.633 120.817 233.772 122.044C234.942 123.241 236.426 123.84 238.226 123.84Z" fill="white"/>
<path d="M162.217 58.2775C157.95 65.6524 151.363 71.4162 143.477 74.6751C135.593 77.934 126.85 78.5057 118.606 76.3016C110.363 74.0976 103.078 69.2409 97.8823 62.4849C92.6868 55.7288 89.8705 47.451 89.8705 38.9352C89.8705 30.4194 92.6868 22.1416 97.8823 15.3856C103.078 8.62957 110.363 3.77291 118.606 1.56886C126.85 -0.635193 135.593 -0.0634552 143.477 3.1954C151.363 6.45424 157.95 12.2181 162.217 19.593L145.543 29.1988C143.394 25.4866 140.078 22.5852 136.109 20.9448C132.14 19.3044 127.74 19.0167 123.59 20.126C119.44 21.2356 115.773 23.6802 113.158 27.081C110.543 30.4818 109.125 34.6486 109.125 38.9352C109.125 43.2219 110.543 47.3887 113.158 50.7895C115.773 54.1902 119.44 56.635 123.59 57.7445C127.74 58.8539 132.14 58.5662 136.109 56.9256C140.078 55.2852 143.394 52.3839 145.543 48.6716L162.217 58.2775Z" fill="#4931A1"/>
<path d="M162.217 58.2774C159.015 63.8113 154.489 68.4675 149.043 71.8302C143.598 75.1927 137.402 77.1571 131.01 77.5474C124.618 77.9379 118.229 76.7425 112.413 74.0677C106.596 71.3931 101.535 67.3226 97.6803 62.2199C93.8256 57.1171 91.2978 51.1411 90.3227 44.8257C89.3475 38.5104 89.9554 32.0523 92.092 26.0285C94.2288 20.0049 97.8275 14.603 102.567 10.3057C107.307 6.00835 113.039 2.94936 119.252 1.40203L123.915 20.042C120.787 20.821 117.902 22.3607 115.516 24.5239C113.13 26.687 111.319 29.4062 110.243 32.4384C109.168 35.4706 108.862 38.7214 109.353 41.9003C109.843 45.0793 111.116 48.0875 113.056 50.6561C114.997 53.2246 117.544 55.2736 120.472 56.6199C123.4 57.9663 126.616 58.5681 129.834 58.3715C133.051 58.1749 136.17 57.1863 138.911 55.4935C141.653 53.8009 143.93 51.4571 145.543 48.6716L162.217 58.2774Z" fill="#763FC1"/>
<path d="M162.217 58.2774C157.331 66.7202 149.432 73.0111 140.098 75.892C130.764 78.7729 120.684 78.0313 111.875 73.8155C103.065 69.5998 96.1758 62.2207 92.5846 53.1544C88.9933 44.0883 88.9651 34.0034 92.5055 24.9172L110.451 31.879C108.669 36.4527 108.683 41.5292 110.491 46.0928C112.299 50.6565 115.767 54.3709 120.201 56.493C124.636 58.6151 129.71 58.9884 134.408 57.5383C139.107 56.0881 143.083 52.9214 145.543 48.6716L162.217 58.2774Z" fill="#D0401F"/>
<path d="M162.217 58.2774C158.562 64.5927 153.195 69.7488 146.729 73.151C140.265 76.5534 132.969 78.0634 125.682 77.5069C118.395 76.9505 111.414 74.3502 105.544 70.006C99.6743 65.6619 95.1544 59.7508 92.506 52.9543L110.452 45.992C111.785 49.4133 114.06 52.3887 117.015 54.5755C119.969 56.7622 123.484 58.0711 127.152 58.3512C130.82 58.6312 134.493 57.8712 137.746 56.1585C141 54.4459 143.703 51.8506 145.543 48.6716L162.217 58.2774Z" fill="#FE9900"/>
<path d="M162.217 58.2774C159.621 62.7636 156.149 66.684 152.005 69.8058C147.863 72.9275 143.134 75.1874 138.099 76.451L133.402 57.8197C135.936 57.1835 138.317 56.0461 140.402 54.4746C142.487 52.9032 144.236 50.9297 145.543 48.6716L162.217 58.2774Z" fill="#63B700"/>
</g>
<defs>
<clipPath id="clip0_3701_17348">
<rect width="251" height="138" fill="white" transform="translate(0.5)"/>
</clipPath>
</defs>
</svg>
